HIERARCHY
ROOT hip
{
  OFFSET 0.00112043 5.09927 -9.65472
  CHANNELS 6 Xposition Yposition Zposition Zrotation Xrotation Yrotation
  JOINT abdomen
  {
    OFFSET 0 -1.186 -1.5018
    CHANNELS 3 Zrotation Xrotation Yrotation
    JOINT abdomen2
    {
      OFFSET 0 9.964 0.2134
      CHANNELS 3 Zrotation Xrotation Yrotation
      JOINT chest
      {
        OFFSET 0 13.134 -3.2573
        CHANNELS 3 Zrotation Xrotation Yrotation
        JOINT neck
        {
          OFFSET 0 20.686 -1.6905
          CHANNELS 3 Zrotation Xrotation Yrotation
          JOINT head
          {
            OFFSET 0 7.238 -0.1237
            CHANNELS 3 Zrotation Xrotation Yrotation
            End Site
            {
              OFFSET 0 0 0
            }
          }
        }
        JOINT lCollar
        {
          OFFSET 1.7069 20.075 5.0056
          CHANNELS 3 Zrotation Xrotation Yrotation
          JOINT lShldr
          {
            OFFSET 13.6458 -0.047 -4.849
            CHANNELS 3 Zrotation Xrotation Yrotation
            JOINT lForeArm
            {
              OFFSET 28.3255 -0.9759 2.2888
              CHANNELS 3 Zrotation Xrotation Yrotation
              JOINT lHand
              {
                OFFSET 22.1583 -0.53 10.8316
                CHANNELS 3 Zrotation Xrotation Yrotation
                JOINT lThumb1
                {
                  OFFSET 0.786 0.112 2.5817
                  CHANNELS 3 Zrotation Xrotation Yrotation
                  JOINT lThumb2
                  {
                    OFFSET 0.3601 -0.878 4.2331
                    CHANNELS 3 Zrotation Xrotation Yrotation
                    JOINT lThumb2_End
                    {
                      OFFSET 1.8127 -1.216 2.2227
                      CHANNELS 3 Zrotation Xrotation Yrotation
                      End Site
                      {
                        OFFSET 0.0181 -0.0122 0.0222
                      }
                    }
                  }
                }
                JOINT lCarpal1
                {
                  OFFSET 0.9571 1.114 1.7695
                  CHANNELS 3 Zrotation Xrotation Yrotation
                  JOINT lIndex1
                  {
                    OFFSET 4.1246 0.487 4.1451
                    CHANNELS 3 Zrotation Xrotation Yrotation
                    JOINT lIndex2
                    {
                      OFFSET 3.4052 -1.454 2.7682
                      CHANNELS 3 Zrotation Xrotation Yrotation
                      JOINT lIndex2_End
                      {
                        OFFSET 1.4531 -1.795 1.2713
                        CHANNELS 3 Zrotation Xrotation Yrotation
                        End Site
                        {
                          OFFSET 0.0145 -0.0179 0.0127
                        }
                      }
                    }
                  }
                  JOINT lMid1
                  {
                    OFFSET 5.6954 0.21 2.1184
                    CHANNELS 3 Zrotation Xrotation Yrotation
                    JOINT lMid2
                    {
                      OFFSET 3.9766 -1.54 2.3863
                      CHANNELS 3 Zrotation Xrotation Yrotation
                      JOINT lMid2_End
                      {
                        OFFSET 1.4042 -1.926 1.125
                        CHANNELS 3 Zrotation Xrotation Yrotation
                        End Site
                        {
                          OFFSET 0.014 -0.0193 0.0113
                        }
                      }
                    }
                  }
                }
                JOINT lCarpal2
                {
                  OFFSET 2.0956 0.66 -0.3894
                  CHANNELS 3 Zrotation Xrotation Yrotation
                  JOINT lRing1
                  {
                    OFFSET 5.0395 -0.09 2.4971
                    CHANNELS 3 Zrotation Xrotation Yrotation
                    JOINT lRing2
                    {
                      OFFSET 3.7921 -1.552 1.4806
                      CHANNELS 3 Zrotation Xrotation Yrotation
                      JOINT lRing2_End
                      {
                        OFFSET 1.4655 -1.808 0.9609
                        CHANNELS 3 Zrotation Xrotation Yrotation
                        End Site
                        {
                          OFFSET 0.0147 -0.0181 0.0096
                        }
                      }
                    }
                  }
                  JOINT lPinky1
                  {
                    OFFSET 4.9141 -1.269 0.3591
                    CHANNELS 3 Zrotation Xrotation Yrotation
                    JOINT lPinky2
                    {
                      OFFSET 3.1477 -1.685 0.8462
                      CHANNELS 3 Zrotation Xrotation Yrotation
                      JOINT lPinky2_End
                      {
                        OFFSET 0.8055 -1.585 0.7955
                        CHANNELS 3 Zrotation Xrotation Yrotation
                        End Site
                        {
                          OFFSET 0.0081 -0.0158 0.008
                        }
                      }
                    }
                  }
                }
              }
            }
          }
        }
        JOINT rCollar
        {
          OFFSET -1.7069 20.075 5.0056
          CHANNELS 3 Zrotation Xrotation Yrotation
          JOINT rShldr
          {
            OFFSET -13.6458 -0.047 -4.849
            CHANNELS 3 Zrotation Xrotation Yrotation
            JOINT rForeArm
            {
              OFFSET -28.3255 -0.9759 2.2888
              CHANNELS 3 Zrotation Xrotation Yrotation
              JOINT rHand
              {
                OFFSET -22.1583 -0.53 10.8316
                CHANNELS 3 Zrotation Xrotation Yrotation
                JOINT rThumb1
                {
                  OFFSET -0.786 0.112 2.5817
                  CHANNELS 3 Zrotation Xrotation Yrotation
                  JOINT rThumb2
                  {
                    OFFSET -0.3601 -0.878 4.2331
                    CHANNELS 3 Zrotation Xrotation Yrotation
                    JOINT rThumb2_End
                    {
                      OFFSET -1.8127 -1.216 2.2227
                      CHANNELS 3 Zrotation Xrotation Yrotation
                      End Site
                      {
                        OFFSET -0.0181 -0.0122 0.0222
                      }
                    }
                  }
                }
                JOINT rCarpal1
                {
                  OFFSET -0.9571 1.114 1.7695
                  CHANNELS 3 Zrotation Xrotation Yrotation
                  JOINT rIndex1
                  {
                    OFFSET -4.1246 0.487 4.1451
                    CHANNELS 3 Zrotation Xrotation Yrotation
                    JOINT rIndex2
                    {
                      OFFSET -3.4052 -1.454 2.7682
                      CHANNELS 3 Zrotation Xrotation Yrotation
                      JOINT rIndex2_End
                      {
                        OFFSET -1.4531 -1.795 1.2713
                        CHANNELS 3 Zrotation Xrotation Yrotation
                        End Site
                        {
                          OFFSET -0.0145 -0.018 0.0127
                        }
                      }
                    }
                  }
                  JOINT rMid1
                  {
                    OFFSET -5.6954 0.21 2.1184
                    CHANNELS 3 Zrotation Xrotation Yrotation
                    JOINT rMid2
                    {
                      OFFSET -3.9766 -1.54 2.3863
                      CHANNELS 3 Zrotation Xrotation Yrotation
                      JOINT rMid2_End
                      {
                        OFFSET -1.4042 -1.926 1.125
                        CHANNELS 3 Zrotation Xrotation Yrotation
                        End Site
                        {
                          OFFSET -0.014 -0.0193 0.0113
                        }
                      }
                    }
                  }
                }
                JOINT rCarpal2
                {
                  OFFSET -2.0956 0.66 -0.3894
                  CHANNELS 3 Zrotation Xrotation Yrotation
                  JOINT rRing1
                  {
                    OFFSET -5.0395 -0.09 2.4971
                    CHANNELS 3 Zrotation Xrotation Yrotation
                    JOINT rRing2
                    {
                      OFFSET -3.7921 -1.552 1.4806
                      CHANNELS 3 Zrotation Xrotation Yrotation
                      JOINT rRing2_End
                      {
                        OFFSET -1.4655 -1.808 0.9609
                        CHANNELS 3 Zrotation Xrotation Yrotation
                        End Site
                        {
                          OFFSET -0.0147 -0.0181 0.0096
                        }
                      }
                    }
                  }
                  JOINT rPinky1
                  {
                    OFFSET -4.9141 -1.269 0.3592
                    CHANNELS 3 Zrotation Xrotation Yrotation
                    JOINT rPinky2
                    {
                      OFFSET -3.1477 -1.685 0.8462
                      CHANNELS 3 Zrotation Xrotation Yrotation
                      JOINT rPinky2_End
                      {
                        OFFSET -0.8055 -1.585 0.7955
                        CHANNELS 3 Zrotation Xrotation Yrotation
                        End Site
                        {
                          OFFSET -0.0081 -0.0158 0.008
                        }
                      }
                    }
                  }
                }
              }
            }
          }
        }
      }
    }
  }
  JOINT lThigh
  {
    OFFSET 8.367 -8.2066 0.5982
    CHANNELS 3 Zrotation Xrotation Yrotation
    JOINT lShin
    {
      OFFSET 2.1923 -43.463 -0.4932
      CHANNELS 3 Zrotation Xrotation Yrotation
      JOINT lFoot
      {
        OFFSET 0.7333 -45.8593 -2.6451
        CHANNELS 3 Zrotation Xrotation Yrotation
        End Site
        {
          OFFSET 2.6618 -4.2699 12.3931
        }
      }
    }
  }
  JOINT rThigh
  {
    OFFSET -8.367 -8.2066 0.5982
    CHANNELS 3 Zrotation Xrotation Yrotation
    JOINT rShin
    {
      OFFSET -2.1923 -43.463 -0.4931
      CHANNELS 3 Zrotation Xrotation Yrotation
      JOINT rFoot
      {
        OFFSET -0.7333 -45.8593 -2.6451
        CHANNELS 3 Zrotation Xrotation Yrotation
        End Site
        {
          OFFSET -2.6618 -4.2699 12.3931
        }
      }
    }
  }
}
MOTION
Frames:	6
Frame Time:	0.0333333
0 91.7903 2.51682 0 0 -0 0 0 -0 0 0 -0 0 0 -0 0 0 -0 0 0 -0 0 0 -0 1.66051 0.0835086 5.75766 -0.0175111 0.895433 15.7816 7.95139e-016 -1.98785e-016 -0 5.46658e-016 -3.97569e-016 -0 5.96354e-016 0 -0 3.97569e-016 1.98785e-016 9.54166e-015 1.49089e-016 -3.97569e-016 -0 6.4605e-016 0 3.18055e-015 5.96354e-016 0 3.18055e-015 8.94531e-016 -1.98785e-016 6.36111e-015 6.4605e-016 0 3.18055e-015 5.96354e-016 0 3.18055e-015 8.94531e-016 -1.98785e-016 6.36111e-015 1.49089e-016 -3.97569e-016 -0 6.4605e-016 0 3.18055e-015 5.96354e-016 0 3.18055e-015 8.94531e-016 -1.98785e-016 6.36111e-015 6.4605e-016 0 3.18055e-015 5.96354e-016 0 3.18055e-015 8.94531e-016 -1.98785e-016 6.36111e-015 0 0 -0 -1.4496 0.0636048 -5.0245 -1.74811 1.20616 -16.8394 -1.19271e-015 1.98785e-016 -3.18055e-015 -3.97569e-016 1.98785e-016 -3.18055e-015 -2.98177e-016 1.98785e-016 -3.18055e-015 -2.98177e-016 3.97569e-016 -0 4.96962e-016 0 -6.36111e-015 -9.93923e-017 3.97569e-016 -0 -8.94531e-016 5.96354e-016 -0 -3.97569e-016 3.97569e-016 -0 -9.93923e-017 3.97569e-016 -0 -8.94531e-016 5.96354e-016 -0 -3.97569e-016 3.97569e-016 -0 4.96962e-016 0 -6.36111e-015 -9.93923e-017 3.97569e-016 -0 -8.94531e-016 5.96354e-016 -0 -3.97569e-016 3.97569e-016 -0 -9.93923e-017 3.97569e-016 -0 -8.94531e-016 5.96354e-016 -0 -3.97569e-016 3.97569e-016 -0 -4.66111 -0.998717 0.12318 0.00986924 1.54847 0.176523 4.65186 -0.572283 -0.254274 4.66111 -0.998765 -0.123176 -0.00986867 1.54869 -0.176537 -4.65186 -0.572453 0.25427 
0.0503457 88.426 -0.310398 0 2.99911 -0 -0.394978 0.81462 3.05903 -0.832998 1.60701 6.1245 -0.832998 1.60702 6.12451 13.9969 -4.78567e-005 -2.60852e-005 1.61272e-006 -1.20976e-007 9.7192e-007 26.2497 11.1117 -74.8024 -36.7707 -14.8039 -6.36155 -59.3161 -37.7847 -60.9894 -14.9449 38.3953 7.84125 -9.23308e-007 9.69903e-007 1.04502e-006 4.64172e-006 -1.18292e-006 3.17072e-006 4.61654e-007 -4.84951e-007 -5.22509e-007 3.18055e-015 9.54166e-015 4.77083e-015 -9.23308e-007 9.69903e-007 1.04502e-006 4.64172e-006 -1.18292e-006 3.17072e-006 4.61654e-007 -4.84951e-007 -5.22509e-007 -9.23308e-007 9.69903e-007 1.04502e-006 4.64172e-006 -1.18292e-006 3.17072e-006 4.61654e-007 -4.84951e-007 -5.22509e-007 3.18055e-015 9.54166e-015 4.77083e-015 -9.23308e-007 9.69903e-007 1.04502e-006 4.64172e-006 -1.18292e-006 3.17072e-006 4.61654e-007 -4.84951e-007 -5.22509e-007 -9.23308e-007 9.69903e-007 1.04502e-006 4.64172e-006 -1.18292e-006 3.17072e-006 4.61654e-007 -4.84951e-007 -5.22509e-007 -1.23995 -18.2153 6.80978 75.4624 6.33749 14.9299 -13.6774 -6.02252 23.2746 64.3368 26.5534 -26.7383 -1.65521e-031 -1.59028e-015 -5.96354e-015 -1.94311e-006 -1.56871e-006 2.04491e-006 -1.59028e-015 0 1.0138e-014 0 0 -5.96354e-015 -1.59028e-015 1.59028e-015 -5.76476e-015 -1.94311e-006 -1.56871e-006 2.04491e-006 -1.59028e-015 0 3.37934e-015 -1.59028e-015 1.59028e-015 -5.76476e-015 -1.94311e-006 -1.56871e-006 2.04491e-006 -1.59028e-015 0 3.37934e-015 0 0 -5.96354e-015 -1.59028e-015 1.59028e-015 -5.76476e-015 -1.94311e-006 -1.56871e-006 2.04491e-006 -1.59028e-015 0 3.37934e-015 -1.59028e-015 1.59028e-015 -5.76476e-015 -1.94311e-006 -1.56871e-006 2.04491e-006 -1.59028e-015 0 3.37934e-015 6.23618 -27.4196 14.1523 1.07958 36.9807 0.334519 -9.28672 -11.7241 3.73661 -16.0336 -18.9323 -11.3993 2.05105 17.0134 -1.6662 18.3746 1.36986 -8.11017 
0.0565058 88.1375 -0.00568557 0 1.94763 -0 -0.367565 1.03484 3.05966 -0.790052 2.04855 6.12739 -0.790052 2.04855 6.12739 14.0797 -0.203769 -0.243847 0.0143 -0.16567 -0.118043 26.2496 11.1118 -74.8024 -36.7707 -14.8039 -6.36155 -59.3161 -37.7846 -60.9894 -14.9565 38.3988 7.83747 -4.61538e-007 4.84822e-007 5.22664e-007 -9.54166e-015 6.36111e-015 1.59028e-015 -9.23077e-007 9.69644e-007 1.04533e-006 2.64834e-031 9.54166e-015 -1.59028e-015 -4.61538e-007 4.84822e-007 5.22664e-007 -6.36111e-015 1.59028e-014 7.95139e-015 -9.23077e-007 9.69644e-007 1.04533e-006 -4.61538e-007 4.84822e-007 5.22664e-007 -6.36111e-015 1.59028e-014 7.95139e-015 -9.23077e-007 9.69644e-007 1.04533e-006 2.64834e-031 9.54166e-015 -1.59028e-015 -4.61538e-007 4.84822e-007 5.22664e-007 -6.36111e-015 1.59028e-014 7.95139e-015 -9.23077e-007 9.69644e-007 1.04533e-006 -4.61538e-007 4.84822e-007 5.22664e-007 -6.36111e-015 1.59028e-014 7.95139e-015 -9.23077e-007 9.69644e-007 1.04533e-006 -0.87798 -18.5551 7.42131 74.9195 6.09439 14.9214 -13.8271 -6.15727 23.0613 64.7062 26.2918 -26.8558 -1.05224e-006 -5.6686e-006 -5.63738e-006 -1.59028e-015 3.18055e-015 7.95139e-016 -8.90406e-007 4.09969e-006 7.68162e-006 3.18055e-015 0 4.37326e-015 -1.05224e-006 -5.6686e-006 -5.63738e-006 -1.59028e-015 -1.59028e-015 -3.37934e-015 -8.90406e-007 4.09969e-006 7.68162e-006 -1.05224e-006 -5.6686e-006 -5.63738e-006 -1.59028e-015 -1.59028e-015 -3.37934e-015 -8.90406e-007 4.09969e-006 7.68162e-006 3.18055e-015 0 4.37326e-015 -1.05224e-006 -5.6686e-006 -5.63738e-006 -1.59028e-015 -1.59028e-015 -3.37934e-015 -8.90406e-007 4.09969e-006 7.68162e-006 -1.05224e-006 -5.6686e-006 -5.63738e-006 -1.59028e-015 -1.59028e-015 -3.37934e-015 -8.90406e-007 4.09969e-006 7.68162e-006 6.26849 -26.5128 14.162 1.28349 37.8497 0.213213 -9.45222 -12.4154 3.50026 -16.1296 -18.3436 -11.4528 1.82066 18.3897 -1.5985 18.5345 0.59251 -7.50973 
0.0622883 87.8473 0.298193 0 0.894726 -0 -0.340083 1.25536 3.06004 -0.746995 2.49076 6.12964 -0.746995 2.49076 6.12964 14.1616 -0.408005 -0.487583 0.0282588 -0.331417 -0.236078 26.2496 11.1118 -74.8023 -36.7707 -14.8039 -6.36156 -59.3161 -37.7847 -60.9894 -14.968 38.4022 7.83365 -4.6142e-007 4.84696e-007 5.22818e-007 -9.22841e-007 9.69392e-007 1.04564e-006 -4.6142e-007 4.84696e-007 5.22818e-007 1.76556e-031 -6.36111e-015 1.59028e-015 -4.6142e-007 4.84696e-007 5.22818e-007 -9.22841e-007 9.69392e-007 1.04564e-006 -4.6142e-007 4.84696e-007 5.22818e-007 -4.6142e-007 4.84696e-007 5.22818e-007 -9.22841e-007 9.69392e-007 1.04564e-006 -4.6142e-007 4.84696e-007 5.22818e-007 1.76556e-031 -6.36111e-015 1.59028e-015 -4.6142e-007 4.84696e-007 5.22818e-007 -9.22841e-007 9.69392e-007 1.04564e-006 -4.6142e-007 4.84696e-007 5.22818e-007 -4.6142e-007 4.84696e-007 5.22818e-007 -9.22841e-007 9.69392e-007 1.04564e-006 -4.6142e-007 4.84696e-007 5.22818e-007 -0.511271 -18.8914 8.03662 74.3766 5.85126 14.9106 -13.9775 -6.29149 22.8475 65.0742 26.0295 -26.9713 -5.40704e-031 -1.11319e-014 -2.78299e-015 2.14503e-006 6.688e-007 5.92813e-006 -1.94225e-006 -1.56909e-006 2.04364e-006 0 0 -2.78299e-015 -1.59028e-015 -9.54166e-015 7.95139e-016 2.14503e-006 6.688e-007 5.92813e-006 -1.94225e-006 -1.56909e-006 2.04364e-006 -1.59028e-015 -9.54166e-015 7.95139e-016 2.14503e-006 6.688e-007 5.92813e-006 -1.94225e-006 -1.56909e-006 2.04364e-006 0 0 -2.78299e-015 -1.59028e-015 -9.54166e-015 7.95139e-016 2.14503e-006 6.688e-007 5.92813e-006 -1.94225e-006 -1.56909e-006 2.04364e-006 -1.59028e-015 -9.54166e-015 7.95139e-016 2.14503e-006 6.688e-007 5.92813e-006 -1.94225e-006 -1.56909e-006 2.04364e-006 6.30129 -25.6039 14.1717 1.49297 38.7166 0.0862902 -9.62136 -13.1053 3.26109 -16.2265 -17.7472 -11.5054 1.58995 19.7537 -1.52661 18.7002 -0.17666 -6.90745 
0.067681 87.5555 0.601271 -0 -0.15943 -0 -0.312534 1.4762 3.06012 -0.703828 2.93356 6.13128 -0.703828 2.93356 6.13127 14.2428 -0.612759 -0.731313 0.0418818 -0.497226 -0.354102 26.2497 11.1117 -74.8024 -36.7707 -14.8039 -6.36155 -59.3161 -37.7847 -60.9894 -14.9796 38.4057 7.82988 4.61299e-007 -4.84572e-007 -5.22972e-007 3.01493e-006 -4.40675e-006 8.08995e-006 9.54166e-015 1.90833e-014 1.43125e-014 -3.18055e-015 6.36111e-015 3.18055e-015 4.61299e-007 -4.84572e-007 -5.22972e-007 3.01493e-006 -4.40675e-006 8.08995e-006 6.36111e-015 1.59028e-014 4.77083e-015 4.61299e-007 -4.84572e-007 -5.22972e-007 3.01493e-006 -4.40675e-006 8.08995e-006 6.36111e-015 1.59028e-014 4.77083e-015 -3.18055e-015 6.36111e-015 3.18055e-015 4.61299e-007 -4.84572e-007 -5.22972e-007 3.01493e-006 -4.40675e-006 8.08995e-006 6.36111e-015 1.59028e-014 4.77083e-015 4.61299e-007 -4.84572e-007 -5.22972e-007 3.01493e-006 -4.40675e-006 8.08995e-006 6.36111e-015 1.59028e-014 4.77083e-015 -0.139846 -19.2242 8.65569 73.8339 5.60828 14.8958 -14.1283 -6.42516 22.6333 65.4409 25.7664 -27.0846 1.87591e-031 1.59028e-015 -6.75868e-015 1.94186e-006 1.56926e-006 -2.04313e-006 -1.59028e-015 1.59028e-015 1.19271e-015 1.59028e-015 -1.59028e-015 -3.77691e-015 -8.27607e-032 1.59028e-015 2.98177e-015 1.94186e-006 1.56926e-006 -2.04313e-006 -3.18055e-015 0 3.97569e-015 -8.27607e-032 1.59028e-015 2.98177e-015 1.94186e-006 1.56926e-006 -2.04313e-006 -3.18055e-015 0 3.97569e-015 1.59028e-015 -1.59028e-015 -3.77691e-015 -8.27607e-032 1.59028e-015 2.98177e-015 1.94186e-006 1.56926e-006 -2.04313e-006 -3.18055e-015 0 3.97569e-015 -8.27607e-032 1.59028e-015 2.98177e-015 1.94186e-006 1.56926e-006 -2.04313e-006 -3.18055e-015 0 3.97569e-015 6.33441 -24.6944 14.1813 1.70878 39.5828 -0.0464702 -9.79421 -13.7937 3.01905 -16.3246 -17.1435 -11.557 1.35868 21.1061 -1.45042 18.8719 -0.938013 -6.30316 
0.0726798 87.2619 0.903583 -0 -1.21466 -0 -0.284917 1.69724 3.05991 -0.660542 3.37685 6.13223 -0.660542 3.37685 6.13223 14.3231 -0.817921 -0.974813 0.0551686 -0.663112 -0.472126 26.2496 11.1117 -74.8024 -36.7707 -14.8039 -6.36154 -59.3161 -37.7847 -60.9894 -14.9912 38.4092 7.82609 -4.61176e-007 4.84451e-007 5.23125e-007 -5.56853e-006 2.1641e-006 -2.12003e-006 -4.61176e-007 4.84451e-007 5.23125e-007 -3.18055e-015 -9.54166e-015 -7.95139e-015 -4.61176e-007 4.84451e-007 5.23125e-007 -5.56853e-006 2.1641e-006 -2.12003e-006 -4.61176e-007 4.84451e-007 5.23125e-007 -4.61176e-007 4.84451e-007 5.23125e-007 -5.56853e-006 2.1641e-006 -2.12003e-006 -4.61176e-007 4.84451e-007 5.23125e-007 -3.18055e-015 -9.54166e-015 -7.95139e-015 -4.61176e-007 4.84451e-007 5.23125e-007 -5.56853e-006 2.1641e-006 -2.12003e-006 -4.61176e-007 4.84451e-007 5.23125e-007 -4.61176e-007 4.84451e-007 5.23125e-007 -5.56853e-006 2.1641e-006 -2.12003e-006 -4.61176e-007 4.84451e-007 5.23125e-007 0.236308 -19.5533 9.27861 73.2909 5.36523 14.8804 -14.2797 -6.55827 22.4187 65.8063 25.5027 -27.1958 9.90564e-008 -4.75881e-006 -9.06463e-006 -3.18055e-015 4.77083e-015 -1.41137e-014 1.94157e-006 1.56941e-006 -2.04268e-006 5.51738e-033 1.59028e-015 -1.98785e-016 9.90564e-008 -4.75881e-006 -9.06463e-006 -3.18055e-015 3.18055e-015 -7.7526e-015 1.94157e-006 1.56941e-006 -2.04268e-006 9.90564e-008 -4.75881e-006 -9.06463e-006 -3.18055e-015 3.18055e-015 -7.7526e-015 1.94157e-006 1.56941e-006 -2.04268e-006 5.51738e-033 1.59028e-015 -1.98785e-016 9.90564e-008 -4.75881e-006 -9.06463e-006 -3.18055e-015 3.18055e-015 -7.7526e-015 1.94157e-006 1.56941e-006 -2.04268e-006 9.90564e-008 -4.75881e-006 -9.06463e-006 -3.18055e-015 3.18055e-015 -7.7526e-015 1.94157e-006 1.56941e-006 -2.04268e-006 6.36834 -23.7818 14.191 1.93012 40.4458 -0.185326 -9.97082 -14.4805 2.77405 -16.4237 -16.5337 -11.6076 1.12603 22.4486 -1.36968 19.0498 -1.69224 -5.6967 
